<?xml version="1.0" standalone="no"?>
<!DOCTYPE svg PUBLIC "-//W3C//DTD SVG 20010904//EN"
 "http://www.w3.org/TR/2001/REC-SVG-20010904/DTD/svg10.dtd">
<svg version="1.0" xmlns="http://www.w3.org/2000/svg"
 width="600.000000pt" height="400.000000pt" viewBox="0 0 600.000000 400.000000"
 preserveAspectRatio="xMidYMid meet">
<g transform="translate(0.000000,400.000000) scale(0.100000,-0.100000)"
fill="#000000" stroke="none">
<path d="M2810 3700 c-139 -24 -331 -109 -451 -200 -97 -72 -230 -218 -289
-312 -96 -157 -157 -355 -166 -543 -24 -455 210 -863 599 -1045 315 -147 725
-126 1028 55 106 63 215 159 282 248 31 42 57 78 57 81 0 3 -24 18 -52 32 -81
41 -281 155 -300 172 -21 17 -20 22 -18 -83 l1 -80 -218 -124 c-120 -69 -305
-175 -410 -237 l-193 -112 0 171 0 172 122 70 c66 39 142 82 167 96 134 75
461 264 494 285 l37 25 163 -94 c89 -52 189 -108 223 -125 l61 -31 26 77 c14
42 33 105 40 138 l15 62 -82 42 c-115 60 -267 145 -362 202 -45 26 -83 48 -85
48 -2 0 -3 -39 -1 -87 l3 -88 -283 -161 c-494 -282 -539 -308 -534 -320 2 -6
0 -16 -5 -21 -5 -5 -1 -9 10 -9 10 0 17 5 14 12 -2 6 2 16 9 21 27 23 111 62
119 57 5 -3 8 0 7 7 -2 7 8 16 22 20 14 4 21 8 15 8 -5 1 8 10 30 20 29 13 44
15 55 8 12 -9 13 -9 3 3 -15 16 -17 31 -5 27 14 -4 121 56 115 65 -3 5 1 8 8
7 23 -5 70 11 64 21 -7 12 32 23 47 14 8 -5 7 0 -2 11 -8 10 -10 16 -4 12 7
-4 23 2 36 13 14 11 28 16 32 13 3 -3 6 -1 6 6 0 12 88 57 103 53 5 -1 5 3 1
9 -5 9 -2 10 9 6 11 -4 17 -1 17 9 0 8 6 14 13 13 15 -3 77 33 77 44 0 5 5 5
12 1 6 -4 8 -3 5 3 -4 6 0 13 8 17 9 3 15 19 15 41 0 21 5 35 13 35 8 0 8 3 1
8 -6 4 -10 19 -10 33 l0 26 35 -20 c53 -29 81 -53 73 -62 -4 -5 -2 -5 4 -2 15
9 106 -31 99 -43 -3 -6 1 -7 9 -4 11 4 14 0 11 -15 -2 -12 0 -19 6 -16 5 4 7
11 4 16 -4 5 -1 9 4 9 6 0 11 -4 11 -9 0 -5 10 -13 23 -17 12 -3 29 -13 38
-21 9 -7 20 -13 25 -12 11 3 45 -11 59 -24 6 -4 24 -16 41 -26 27 -16 30 -23
26 -55 -2 -20 -8 -34 -12 -31 -4 2 -5 -7 -2 -22 3 -17 1 -24 -6 -19 -7 4 -9
-2 -6 -18 2 -14 -2 -31 -10 -39 -8 -8 -13 -17 -10 -20 3 -3 3 -15 -1 -26 l-6
-21 -42 21 c-23 12 -46 28 -50 35 -4 8 -15 14 -23 14 -9 0 -30 10 -47 22 -17
12 -27 16 -23 9 5 -8 -3 -6 -18 5 -21 13 -24 19 -14 26 8 5 2 6 -17 2 -21 -4
-26 -3 -16 4 11 8 6 12 -21 20 -19 5 -59 26 -88 45 -29 20 -59 33 -66 30 -8
-3 -14 1 -14 8 0 12 -2 12 -9 0 -7 -10 -13 -11 -32 -1 -20 10 -22 10 -12 0 10
-11 8 -17 -9 -32 -12 -10 -28 -16 -35 -13 -8 2 -11 0 -8 -5 3 -6 0 -10 -9 -10
-8 0 -16 -3 -18 -7 -1 -5 -19 -16 -38 -26 -87 -46 -119 -65 -115 -69 2 -2 -21
-17 -53 -34 -31 -16 -65 -35 -74 -43 -10 -7 -24 -11 -33 -7 -9 3 -13 2 -10 -4
3 -6 -1 -10 -9 -10 -9 0 -16 -4 -16 -10 0 -10 -130 -75 -143 -72 -5 2 -6 -2
-3 -7 4 -5 -18 -21 -48 -35 -30 -14 -58 -31 -61 -36 -4 -6 -11 -7 -17 -4 -7 5
-8 2 -3 -6 6 -10 4 -12 -9 -7 -10 4 -15 3 -11 -3 3 -6 1 -10 -5 -10 -20 0 -75
-52 -76 -71 -1 -10 2 -16 6 -14 4 2 7 -56 7 -130 0 -74 -4 -135 -9 -135 -5 0
-7 -4 -4 -9 8 -12 -34 -7 -60 7 -12 6 -24 8 -28 5 -3 -3 -6 -1 -6 5 0 7 -7 12
-15 12 -8 0 -29 9 -47 20 -18 11 -26 20 -18 20 13 0 13 1 0 10 -20 13 -33 13
-25 0 11 -18 -11 -11 -30 10 -10 11 -21 17 -26 15 -4 -3 -19 9 -33 27 -16 21
-26 27 -27 18 0 -9 -4 -5 -9 8 -5 12 -21 27 -35 32 -15 6 -23 14 -20 20 4 6
-1 7 -11 3 -12 -4 -15 -3 -10 5 4 7 2 12 -6 12 -17 0 -71 67 -63 79 3 5 -4 13
-16 16 -15 5 -19 13 -16 27 5 16 3 17 -10 6 -15 -12 -15 -10 -3 12 12 23 12
24 -3 11 -15 -12 -17 -11 -18 5 -1 11 -1 23 0 27 1 5 -2 6 -7 3 -4 -2 -16 11
-27 30 -10 19 -22 34 -27 34 -4 0 -8 7 -8 15 0 8 -9 29 -20 47 -11 18 -20 46
-20 61 0 16 -4 26 -9 23 -4 -3 -6 6 -3 21 3 15 1 23 -4 20 -6 -3 -11 3 -12 14
-1 10 -3 28 -4 38 -1 11 -6 17 -12 14 -5 -4 -6 6 -2 23 5 22 4 26 -4 14 -9
-12 -11 -8 -8 17 3 18 1 30 -4 27 -4 -3 -9 19 -9 48 -1 29 -3 85 -5 123 -2 39
2 99 8 135 5 36 11 76 11 90 1 14 5 27 9 31 4 3 9 18 12 35 3 28 19 75 33 97
4 6 1 7 -6 2 -9 -5 -10 -3 -2 11 5 11 20 46 32 79 13 33 29 65 36 71 7 6 10
14 6 17 -3 4 -1 7 6 7 7 0 9 5 6 10 -3 6 -2 10 3 10 6 0 17 18 25 39 9 22 22
43 29 47 10 5 11 4 1 -7 -7 -7 -13 -18 -13 -24 0 -5 14 12 30 38 17 26 35 45
40 42 5 -3 12 -1 15 5 4 6 3 10 -2 9 -23 -4 -25 3 -5 17 12 8 26 12 32 9 5 -3
7 0 4 8 -11 29 48 56 76 34 13 -11 13 -10 0 7 -8 11 -14 22 -13 25 1 3 -1 8
-4 11 -4 3 -3 -1 2 -9 5 -9 4 -12 -3 -7 -7 4 -12 2 -12 -5 0 -7 -3 -9 -6 -6
-9 9 16 38 26 32 5 -3 15 4 24 16 9 13 19 18 27 14 8 -5 10 -4 5 3 -10 16 6
15 24 0 8 -7 11 -9 7 -4 -4 5 -2 15 4 23 6 7 8 13 4 13 -3 0 7 11 23 25 17 14
39 25 51 25 12 0 21 5 21 11 0 7 11 8 29 4 16 -3 32 -2 35 3 3 5 -3 8 -12 8
-9 -1 -19 3 -22 9 -3 5 2 10 10 11 8 0 33 8 55 19 22 10 46 18 53 18 6 0 12 4
12 8 0 5 6 6 13 3 8 -3 35 4 61 15 94 41 317 50 431 19 22 -7 44 -11 49 -9 5
1 13 -4 17 -11 7 -10 9 -10 9 -1 0 10 6 10 25 1 13 -6 23 -14 20 -17 -2 -4 8
-8 23 -9 36 -3 92 -30 92 -45 0 -8 3 -9 8 -1 7 12 55 -12 63 -31 2 -5 9 -10
14 -11 29 -3 54 -18 48 -27 -4 -6 0 -8 10 -4 10 4 16 2 14 -6 -1 -7 4 -11 12
-9 11 2 12 0 3 -11 -10 -12 -8 -13 13 -9 20 3 27 -1 34 -22 8 -18 15 -24 27
-19 13 5 16 2 11 -10 -3 -8 1 -21 9 -27 9 -8 14 -9 14 -2 0 6 -6 13 -12 15
-10 4 -10 6 -1 6 6 1 20 -12 30 -29 9 -16 23 -30 30 -30 7 0 13 -4 13 -10 0
-5 -6 -7 -14 -4 -8 3 -17 1 -20 -4 -3 -5 2 -9 11 -8 9 0 18 -5 20 -12 3 -8 -2
-10 -14 -6 -14 5 -15 4 -3 -4 18 -13 33 -5 26 14 -3 8 -1 14 3 14 9 0 22 -23
27 -48 1 -8 10 -19 20 -26 13 -10 14 -15 4 -21 -8 -5 -19 1 -31 16 -10 13 -21
20 -25 16 -4 -4 -16 0 -26 10 -10 9 -18 13 -18 10 0 -4 -9 2 -20 13 -11 11
-27 20 -35 20 -8 0 -15 5 -15 11 0 5 -4 8 -9 4 -5 -3 -12 -1 -16 5 -3 6 -24
19 -46 30 -38 20 -40 20 -72 3 -17 -9 -36 -16 -40 -15 -5 1 -6 -2 -2 -8 3 -6
-3 -10 -15 -10 -13 0 -19 -4 -14 -11 5 -8 -1 -10 -19 -7 -15 3 -24 2 -22 -2 3
-4 -12 -20 -32 -36 -20 -15 -34 -23 -31 -18 3 5 -4 9 -17 9 -13 0 -23 -2 -22
-5 3 -9 -27 -45 -39 -47 -7 -1 -34 -15 -61 -31 -26 -16 -55 -27 -63 -24 -8 3
-12 1 -8 -3 10 -11 -15 -33 -31 -27 -9 3 -12 1 -7 -6 4 -8 0 -12 -12 -12 -10
0 -27 -8 -38 -18 -11 -11 -28 -18 -38 -16 -10 1 -15 0 -12 -3 6 -6 -23 -32
-37 -33 -5 0 -5 6 -2 13 4 6 -3 0 -15 -15 -12 -16 -28 -28 -36 -28 -8 0 -14
-4 -14 -10 0 -5 -8 -7 -17 -3 -10 3 -15 3 -11 -1 3 -4 -23 -23 -59 -42 -72
-37 -87 -42 -57 -18 18 14 18 15 -4 4 -15 -7 -21 -17 -18 -26 3 -8 2 -13 -3
-10 -4 3 -17 -1 -27 -9 -18 -15 -18 -15 1 -8 17 6 18 4 8 -8 -8 -10 -11 -52
-8 -137 3 -74 0 -122 -5 -122 -6 0 -10 -8 -10 -17 0 -15 2 -16 10 -3 8 12 10
11 10 -7 0 -12 -5 -23 -11 -25 -8 -3 -6 -10 5 -21 10 -9 14 -17 9 -17 -4 0 3
-7 16 -16 17 -13 25 -14 34 -5 9 9 7 11 -8 6 -11 -3 -3 3 17 14 20 12 39 25
42 30 3 5 15 7 25 4 10 -3 22 0 25 6 5 7 0 9 -11 5 -10 -3 -4 3 12 14 23 14
34 17 45 8 8 -5 12 -7 8 -2 -9 11 10 29 49 45 18 7 30 18 26 23 -3 6 0 9 8 6
8 -3 20 1 27 9 7 7 22 13 33 13 10 0 18 5 16 12 -1 7 3 12 10 13 6 0 15 3 19
8 12 11 26 8 18 -5 -5 -7 -3 -8 5 -4 7 5 10 10 7 13 -7 8 28 40 40 36 6 -2 18
2 25 9 8 8 22 17 32 21 9 3 17 11 17 17 0 5 5 10 11 10 5 0 7 -4 4 -10 -3 -6
1 -7 9 -4 9 3 14 10 11 14 -3 4 2 11 11 14 24 9 31 7 14 -5 -13 -9 -13 -10 0
-6 8 2 14 9 13 16 -4 14 54 44 69 35 6 -4 8 -3 5 3 -9 14 15 34 42 36 11 0 17
5 14 10 -3 5 0 8 8 5 7 -2 23 6 35 19 12 13 28 23 35 23 24 0 41 56 37 121 -3
48 -2 57 7 45 7 -9 21 -17 33 -19 11 -2 26 -8 34 -13 7 -6 20 -14 28 -18 38
-17 59 -33 53 -39 -3 -4 0 -7 8 -7 19 -1 110 -46 104 -52 -2 -2 11 -10 30 -17
19 -7 35 -17 35 -23 0 -5 7 -8 15 -4 8 3 15 1 15 -4 0 -5 11 -12 25 -16 14 -3
23 -9 21 -13 -2 -3 8 -15 23 -25 l26 -20 -19 23 c-17 18 -17 21 -3 15 9 -3 17
-9 18 -13 1 -9 7 -38 23 -121 8 -41 15 -97 15 -124 l1 -48 -26 17 c-15 9 -23
12 -20 6 5 -7 1 -9 -8 -5 -9 3 -13 10 -10 15 3 5 -1 9 -9 9 -8 0 -20 7 -27 15
-8 10 -21 13 -33 9 -13 -4 -17 -2 -13 5 4 6 1 11 -7 11 -8 0 -20 7 -27 15 -7
9 -19 14 -27 11 -8 -3 -11 -2 -8 3 4 8 -30 26 -45 23 -3 0 -10 9 -17 21 -7 13
-12 16 -13 8 0 -11 -6 -8 -20 7 -12 12 -30 22 -41 22 -11 0 -17 5 -14 10 4 6
3 10 -2 9 -17 -3 -53 14 -47 22 3 5 -1 6 -9 3 -8 -3 -21 2 -30 10 -9 9 -20 16
-26 16 -6 0 -11 5 -11 10 0 6 -7 10 -15 10 -8 0 -15 -5 -15 -11 0 -6 -7 -8
-16 -5 -10 4 -27 -5 -47 -24 -16 -16 -34 -27 -39 -24 -5 3 -22 -6 -39 -20 -17
-14 -37 -26 -44 -26 -8 0 -26 -11 -41 -25 -21 -19 -30 -22 -45 -14 -11 5 -19
6 -18 2 4 -22 -3 -32 -16 -26 -10 3 -15 1 -13 -7 2 -7 -3 -15 -11 -18 -9 -3
-11 0 -6 8 5 9 4 11 -4 6 -6 -4 -9 -11 -6 -16 3 -5 1 -11 -5 -15 -5 -3 -10 -1
-10 5 0 6 -12 -1 -27 -15 -16 -14 -36 -24 -45 -21 -12 3 -15 -1 -11 -12 5 -11
2 -14 -11 -9 -10 4 -19 1 -23 -8 -3 -10 -12 -13 -25 -9 -13 4 -18 2 -14 -4 4
-6 -4 -17 -16 -24 -39 -21 -122 -47 -133 -40 -5 3 -1 -5 10 -18 11 -13 14 -20
8 -16 -7 4 -21 2 -30 -3 -10 -6 -13 -11 -8 -11 6 0 -5 -7 -24 -15 -18 -8 -38
-12 -44 -8 -6 3 -7 1 -3 -5 10 -17 -39 -45 -66 -37 -16 4 -19 3 -9 -3 10 -7
11 -14 2 -31 -7 -11 -9 -21 -7 -21 3 0 1 -11 -4 -25 -6 -16 -6 -25 0 -25 5 0
9 -54 9 -125 0 -96 -3 -124 -12 -118 -9 5 -9 3 0 -8 8 -10 9 -19 3 -25 -6 -6
-5 -15 1 -24 9 -13 10 -13 6 2 -3 9 1 19 9 22 11 4 14 37 14 180 0 156 2 175
18 180 9 4 46 24 82 45 204 121 714 411 721 411 5 0 67 -34 137 -75 70 -41
188 -107 262 -148 l135 -74 3 30 c4 38 -15 185 -34 262 l-15 60 -127 70 c-69
39 -181 102 -249 142 l-123 71 0 -94 c0 -86 -2 -95 -22 -107 -13 -8 -178 -103
-368 -212 -190 -108 -362 -208 -382 -221 l-38 -24 0 174 0 174 93 52 c50 29
128 74 172 100 44 26 112 64 150 85 39 21 148 82 242 137 l173 100 184 -106
c102 -58 187 -106 190 -106 19 0 -96 152 -179 236 -171 173 -370 280 -585 314
-74 11 -243 11 -310 0z m-420 -214 c0 -3 -4 -8 -10 -11 -5 -3 -10 -1 -10 4 0
6 5 11 10 11 6 0 10 -2 10 -4z m1515 -826 c3 -6 -1 -7 -9 -4 -18 7 -21 14 -7
14 6 0 13 -4 16 -10z m-1020 -130 c-3 -5 -14 -10 -23 -10 -15 0 -15 2 -2 10
20 13 33 13 25 0z m659 -386 c9 -3 13 -10 10 -15 -3 -5 1 -6 9 -3 8 3 22 -2
30 -11 9 -9 20 -16 24 -16 4 -1 7 -5 5 -11 -1 -5 2 -6 8 -3 7 4 23 -4 37 -16
15 -13 23 -18 19 -12 -5 9 -2 11 8 7 9 -3 13 -10 10 -15 -3 -5 2 -9 12 -9 9 0
23 -8 31 -17 8 -10 12 -12 8 -6 -4 8 -1 11 8 7 9 -3 13 -14 10 -27 -5 -22 -5
-22 11 -2 12 15 15 16 10 3 -4 -13 -1 -15 14 -11 29 7 36 -14 14 -42 -11 -13
-22 -22 -24 -19 -3 2 -11 -2 -18 -11 -9 -11 -9 -15 -1 -15 7 0 -7 -18 -30 -40
-23 -22 -45 -37 -49 -35 -4 3 -11 -2 -14 -11 -4 -10 -2 -13 7 -8 6 4 -3 -7
-22 -24 -19 -18 -36 -31 -38 -29 -2 3 -23 -13 -46 -34 -22 -22 -46 -39 -52
-39 -5 0 -3 5 5 10 8 5 11 10 5 10 -5 0 -21 -12 -34 -26 -15 -15 -32 -24 -43
-21 -10 3 -21 0 -25 -5 -3 -7 -1 -8 5 -4 7 4 12 5 12 2 0 -3 -17 -12 -37 -21
-21 -9 -53 -23 -72 -31 -18 -8 -54 -17 -80 -21 -25 -3 -51 -10 -58 -15 -36
-29 -393 -43 -409 -17 -3 5 -10 9 -15 9 -6 0 -7 -4 -4 -10 4 -6 -2 -7 -16 -1
-13 4 -25 14 -27 21 -3 7 0 10 7 6 6 -4 11 -3 11 3 0 6 7 7 17 4 10 -4 14 -2
10 4 -8 12 40 36 55 27 7 -5 8 -2 3 6 -6 9 -4 12 6 8 8 -3 23 0 34 8 10 8 14
14 8 14 -7 0 -15 -5 -18 -10 -4 -6 -11 -7 -17 -4 -11 7 56 44 79 44 8 0 11 5
8 10 -4 6 -3 10 2 9 4 -1 22 -1 38 0 21 1 26 4 16 10 -11 7 -9 10 8 16 12 3
18 11 15 17 -5 7 -1 9 8 5 9 -3 24 2 34 11 11 9 25 17 32 18 38 3 43 5 38 13
-4 5 22 23 56 40 34 17 71 39 82 49 10 9 16 11 12 5 -5 -9 -2 -11 8 -7 9 3 14
10 11 14 -3 5 4 11 15 15 11 3 20 11 20 17 0 6 3 8 7 5 3 -4 12 -2 19 4 8 6
21 8 30 5 14 -5 15 -4 4 9 -11 13 -10 14 5 9 14 -6 16 -4 10 7 -4 8 -5 11 0 7
4 -4 20 1 35 12 16 11 33 20 39 20 6 0 11 5 11 11 0 5 4 8 8 5 8 -4 10 12 15
112 1 17 2 32 3 32 1 0 9 -3 18 -6z"/>
<path d="M3806 1964 c-5 -14 -4 -15 9 -4 17 14 19 20 6 20 -5 0 -12 -7 -15
-16z"/>
<path d="M3495 1960 c-3 -5 -1 -10 4 -10 6 0 11 5 11 10 0 6 -2 10 -4 10 -3 0
-8 -4 -11 -10z"/>
<path d="M3148 1553 c6 -2 18 -2 25 0 6 3 1 5 -13 5 -14 0 -19 -2 -12 -5z"/>
<path d="M3586 3553 c-6 -14 -5 -15 5 -6 7 7 10 15 7 18 -3 3 -9 -2 -12 -12z"/>
<path d="M3650 3357 c0 -2 6 -10 14 -16 11 -9 16 -9 22 1 4 7 4 10 -1 6 -4 -4
-14 -3 -22 3 -7 6 -13 9 -13 6z"/>
<path d="M3220 3249 c-22 -18 -22 -19 -3 -10 12 6 25 16 28 21 9 15 3 12 -25
-11z"/>
<path d="M2050 3100 c0 -5 5 -10 10 -10 6 0 10 5 10 10 0 6 -4 10 -10 10 -5 0
-10 -4 -10 -10z"/>
<path d="M3207 2769 c7 -7 15 -10 18 -7 3 3 -2 9 -12 12 -14 6 -15 5 -6 -5z"/>
<path d="M2831 2597 c2 -1 13 -9 24 -17 19 -14 19 -14 6 3 -7 9 -18 17 -24 17
-6 0 -8 -1 -6 -3z"/>
<path d="M2647 2489 c7 -7 15 -10 18 -7 3 3 -2 9 -12 12 -14 6 -15 5 -6 -5z"/>
<path d="M2688 2443 c6 -2 18 -2 25 0 6 3 1 5 -13 5 -14 0 -19 -2 -12 -5z"/>
<path d="M3177 2229 c7 -7 15 -10 18 -7 3 3 -2 9 -12 12 -14 6 -15 5 -6 -5z"/>
<path d="M3134 2194 c-18 -14 -18 -15 4 -4 12 6 22 13 22 15 0 8 -5 6 -26 -11z"/>
<path d="M2167 1769 c7 -7 15 -10 18 -7 3 3 -2 9 -12 12 -14 6 -15 5 -6 -5z"/>
<path d="M2485 1350 c-3 -6 1 -7 9 -4 18 7 21 14 7 14 -6 0 -13 -4 -16 -10z"/>
<path d="M1449 1280 c-80 -42 -80 -192 0 -231 14 -7 70 -14 123 -17 104 -5
122 -13 116 -54 -3 -22 -7 -23 -88 -23 -81 0 -85 1 -88 23 -3 20 -9 22 -63 22
-58 0 -59 0 -59 -29 0 -40 40 -94 80 -108 53 -18 221 -16 269 3 47 19 71 61
71 126 0 94 -45 125 -197 136 l-98 7 -3 29 c-5 37 10 46 80 46 72 0 88 -6 88
-36 0 -23 3 -24 60 -24 l61 0 -7 38 c-17 92 -51 112 -199 112 -89 -1 -117 -5
-146 -20z m251 -12 c8 -3 23 -9 33 -12 10 -3 16 -10 12 -15 -3 -5 -1 -12 5
-16 5 -3 10 -15 10 -26 0 -11 -4 -17 -10 -14 -5 3 -10 2 -10 -3 0 -20 -37 1
-46 26 -9 25 -12 26 -87 26 -42 1 -77 -3 -77 -8 0 -5 -3 -7 -6 -3 -11 11 -44
-28 -44 -53 0 -50 46 -69 172 -71 37 -1 65 -5 62 -10 -3 -5 2 -6 10 -3 10 4
16 1 16 -7 0 -7 3 -9 7 -6 3 4 15 0 25 -9 15 -14 16 -20 5 -32 -9 -12 -9 -14
0 -8 17 10 10 -68 -8 -91 -12 -15 -12 -16 1 -8 8 4 5 -3 -8 -17 -16 -17 -30
-24 -45 -21 -18 4 -19 3 -7 -7 12 -9 11 -10 -6 -5 -19 5 -144 7 -186 3 -22 -2
-98 32 -98 44 0 5 5 6 10 3 6 -3 10 -1 10 4 0 6 -4 11 -9 11 -5 0 -12 7 -15
16 -3 8 -2 12 4 9 6 -3 10 -2 10 2 0 5 12 10 27 11 14 1 23 -1 20 -4 -7 -8 31
-44 45 -44 5 0 7 -4 4 -9 -4 -5 9 -6 28 -1 19 4 52 4 73 1 31 -6 42 -4 61 14
30 28 35 69 11 91 -10 9 -17 19 -15 23 2 3 -36 6 -85 5 -72 0 -92 3 -99 15 -7
11 -9 12 -10 3 0 -16 -37 -7 -62 16 -13 11 -15 19 -8 28 8 8 7 13 -2 16 -11 4
-11 8 0 20 9 11 10 18 2 23 -7 4 -7 12 0 26 6 11 8 25 4 32 -4 6 -4 9 0 5 5
-4 19 3 32 15 21 20 34 22 126 21 57 0 110 -3 118 -6z"/>
<path d="M1432 1094 c10 -10 20 -16 22 -13 3 3 -5 11 -17 18 -21 13 -21 12 -5
-5z"/>
<path d="M1750 1056 c0 -2 7 -7 16 -10 8 -3 12 -2 9 4 -6 10 -25 14 -25 6z"/>
<path d="M1880 1075 l0 -225 65 0 65 0 0 225 0 225 -65 0 -65 0 0 -225z m110
0 l0 -195 -40 0 -40 0 0 195 0 195 40 0 40 0 0 -195z"/>
<path d="M2100 1075 l0 -225 65 0 64 0 3 95 3 96 83 -96 83 -95 75 0 c41 0 74
4 74 9 0 5 -4 11 -9 13 -4 2 -32 32 -61 68 -29 36 -71 84 -93 107 l-41 43 29
32 c16 18 61 66 100 106 l69 72 -75 0 -76 0 -82 -90 -81 -91 0 91 0 90 -65 0
-65 0 0 -225z m104 166 c7 -39 5 -64 -8 -80 -9 -12 -8 -13 3 -7 10 7 12 3 6
-15 -4 -13 -4 -21 0 -17 5 4 13 1 19 -8 10 -13 14 -13 31 4 11 10 27 16 34 14
8 -3 11 0 7 7 -4 6 -3 11 3 11 5 0 12 -4 16 -10 3 -5 12 -7 20 -4 8 4 12 11 9
16 -4 6 -10 5 -15 -3 -6 -10 -10 -9 -15 6 -5 11 -3 20 4 23 7 2 12 10 12 18 0
19 16 18 24 -1 3 -8 11 -15 18 -15 10 0 10 2 -1 9 -7 5 -10 14 -7 20 4 6 12 9
17 6 5 -3 6 1 3 10 -6 14 -8 14 -20 -2 -7 -10 -14 -13 -14 -7 0 5 14 23 30 39
17 16 30 23 30 16 0 -11 3 -11 15 -1 9 8 15 9 15 2 0 -6 -5 -14 -10 -17 -6 -4
-8 -16 -5 -27 5 -14 1 -21 -14 -25 -12 -3 -21 -10 -21 -15 0 -5 6 -6 13 -2 6
3 -8 -13 -33 -36 -51 -48 -54 -58 -26 -82 10 -10 15 -18 10 -18 -5 0 -4 -4 1
-8 23 -16 54 -65 48 -75 -3 -6 -1 -7 6 -3 6 4 22 -6 38 -24 15 -18 33 -38 41
-46 11 -12 11 -14 -6 -14 -11 0 -28 -3 -38 -7 -13 -5 -15 -3 -9 7 5 9 4 11 -3
6 -19 -12 -54 13 -47 34 7 21 -10 36 -21 19 -5 -8 -3 -9 6 -4 9 6 11 4 5 -5
-6 -10 -12 -8 -26 11 -10 13 -26 33 -36 44 -10 11 -18 24 -18 28 0 15 -48 44
-66 40 -23 -6 -27 -25 -22 -109 5 -70 4 -71 -19 -69 -12 1 -29 3 -35 4 -10 1
-13 47 -13 195 0 147 3 195 13 199 24 8 46 -5 51 -32z m263 20 c0 -11 -4 -18
-8 -15 -4 2 -9 -2 -12 -8 -2 -7 -8 -10 -12 -6 -5 5 0 17 10 28 22 25 24 25 22
1z m-340 -278 c-1 -54 -3 -10 -3 97 0 107 2 151 3 98 2 -54 2 -142 0 -195z"/>
<path d="M2780 1291 c0 -6 -34 -97 -76 -203 -42 -106 -80 -203 -85 -215 -8
-22 -7 -23 55 -23 l63 0 12 40 12 40 93 0 93 0 16 -40 15 -40 61 0 c34 0 61 1
61 3 0 1 -40 101 -89 222 l-89 220 -71 3 c-44 2 -71 -1 -71 -7z m131 -31 c14
-8 18 -17 13 -38 -4 -18 -2 -23 4 -14 6 9 13 -4 22 -43 7 -30 17 -55 22 -55 5
0 6 -4 3 -10 -3 -5 -1 -10 6 -10 8 0 8 -4 -1 -16 -8 -8 -9 -14 -4 -13 21 4 28
-2 14 -11 -10 -6 -11 -10 -2 -10 6 0 12 -6 12 -14 0 -8 4 -16 10 -18 5 -2 11
-14 12 -28 2 -14 11 -34 21 -45 10 -11 14 -21 8 -23 -5 -2 -6 -13 -3 -25 5
-20 4 -21 -13 -7 -10 8 -16 10 -12 3 5 -7 1 -9 -10 -6 -10 2 -29 22 -42 43
-20 32 -28 37 -42 29 -23 -12 -32 -11 -23 2 4 7 0 9 -12 6 -29 -9 -98 -12
-109 -5 -6 3 -21 -2 -34 -13 -13 -10 -20 -19 -16 -19 4 0 2 -6 -4 -13 -6 -8
-8 -16 -5 -20 5 -4 -44 -3 -68 2 -9 2 3 41 13 41 5 0 9 9 9 21 0 13 4 18 12
13 7 -4 8 -3 4 5 -4 6 -1 25 8 41 8 17 10 28 5 25 -5 -4 4 19 20 50 16 30 32
67 35 80 4 14 10 25 15 25 5 0 7 9 4 19 -3 10 0 28 6 40 9 17 21 21 57 21 25
0 54 -5 65 -10z"/>
<path d="M2843 1194 c4 -7 0 -15 -9 -18 -8 -3 -13 -10 -10 -15 4 -5 2 -11 -3
-13 -6 -1 -12 -15 -15 -29 -2 -15 -11 -40 -19 -56 -14 -26 -14 -31 1 -50 14
-18 27 -22 67 -22 28 1 57 6 66 12 16 12 23 51 7 41 -4 -3 -8 0 -8 5 0 6 5 11
12 11 6 0 4 8 -6 19 -10 11 -15 24 -12 29 3 6 -1 12 -9 16 -8 3 -15 11 -15 19
0 7 -12 24 -27 38 -14 13 -23 19 -20 13z m28 -61 c7 -21 18 -53 26 -70 7 -18
14 -36 16 -40 2 -6 -104 -5 -111 1 -2 3 50 146 54 146 1 0 8 -17 15 -37z"/>
<path d="M3392 1088 c-46 -117 -86 -219 -89 -225 -4 -10 11 -13 56 -13 l61 0
16 40 16 40 94 0 93 0 12 -40 12 -40 65 0 c47 0 63 3 59 13 -47 109 -167 414
-167 424 0 9 -20 13 -73 13 l-72 0 -83 -212z m214 163 c7 -8 10 -19 8 -23 -3
-4 3 -22 13 -40 9 -18 18 -39 19 -46 1 -8 10 -30 20 -50 10 -20 18 -54 18 -75
1 -30 3 -34 12 -22 10 13 13 10 18 -19 4 -19 10 -36 15 -38 4 -2 11 -14 14
-28 6 -24 4 -26 -34 -27 -22 -1 -37 2 -34 8 4 5 1 9 -6 9 -7 0 -4 6 7 14 10 8
16 18 11 22 -4 4 -7 2 -7 -4 0 -9 -5 -9 -19 0 -11 7 -18 15 -15 20 3 4 -9 5
-25 3 -64 -8 -117 -8 -129 -1 -7 4 -12 2 -12 -4 0 -8 -6 -8 -20 0 -11 6 -21 8
-21 5 -1 -3 -3 -8 -4 -12 -2 -5 -6 -18 -10 -30 -4 -13 -12 -23 -17 -23 -5 0
-7 -4 -4 -8 3 -5 -1 -9 -9 -9 -8 0 -15 4 -15 9 0 5 -6 6 -12 1 -27 -16 -38
-12 -23 10 8 12 14 25 14 30 2 26 25 97 32 97 5 0 9 9 9 20 0 28 21 70 32 64
5 -3 8 0 7 7 -5 28 13 80 32 90 14 7 18 16 13 31 -4 15 -3 18 6 13 9 -5 11 -4
6 3 -13 21 1 27 50 23 30 -2 53 -10 60 -20z"/>
<path d="M3526 1168 c-14 -17 -26 -38 -26 -46 0 -7 -5 -10 -12 -6 -6 4 -8 3
-5 -3 3 -5 0 -27 -8 -49 -7 -21 -10 -43 -5 -48 5 -5 7 -14 6 -20 -2 -6 -1 -9
1 -6 2 3 30 4 62 3 45 -1 61 2 65 13 3 9 10 12 16 9 6 -3 1 19 -11 49 -11 31
-17 61 -13 67 4 8 3 9 -4 5 -7 -4 -14 3 -18 19 -3 14 -10 25 -16 25 -5 0 -6 5
-3 10 13 21 -3 9 -29 -22z m74 -148 c0 -7 -120 -3 -127 4 -4 3 -2 6 4 6 9 0
32 49 58 125 5 16 13 4 36 -55 16 -41 29 -77 29 -80z"/>
<path d="M3456 1105 c4 -8 11 -15 16 -15 6 0 5 6 -2 15 -7 8 -14 15 -16 15 -2
0 -1 -7 2 -15z"/>
<path d="M3416 1073 c-6 -14 -5 -15 5 -6 7 7 10 15 7 18 -3 3 -9 -2 -12 -12z"/>
<path d="M3865 1075 l0 -225 63 0 62 0 0 68 0 67 77 -3 c110 -5 152 11 181 68
28 57 29 127 1 181 -30 60 -61 69 -236 69 l-148 0 0 -225z m205 190 c22 -3 30
-1 21 4 -21 14 84 4 109 -9 15 -8 20 -18 17 -31 -3 -10 -1 -17 3 -14 15 9 27
-50 20 -100 -8 -60 -27 -98 -45 -91 -8 3 -15 1 -17 -4 -3 -9 -74 -18 -150 -19
-35 -1 -48 -5 -48 -16 0 -9 -6 -12 -17 -9 -14 4 -15 3 -5 -4 10 -7 12 -20 5
-53 -7 -36 -13 -44 -31 -45 -12 -1 -25 3 -29 9 -3 5 -7 94 -9 198 -2 186 -2
188 19 191 26 4 108 0 157 -7z"/>
<path d="M4106 1233 c-3 -4 -33 -5 -65 -4 l-59 2 -12 -35 c-6 -20 -9 -44 -5
-55 3 -11 1 -22 -5 -26 -5 -3 -10 -12 -10 -18 0 -7 4 -6 10 3 8 12 10 9 10
-11 0 -16 7 -30 18 -34 18 -8 75 -7 106 2 12 3 16 1 12 -6 -14 -22 12 -10 44
19 30 28 32 33 26 77 -8 70 -9 73 -14 68 -3 -3 -15 1 -28 9 -12 8 -25 12 -28
9z m43 -56 c8 -21 4 -87 -6 -97 -2 -3 -38 -6 -79 -8 l-74 -4 0 68 0 69 76 -3
c66 -3 76 -6 83 -25z"/>
<path d="M4340 1075 l0 -225 66 0 66 0 -4 65 -3 65 85 0 c116 1 161 21 185 84
21 55 16 140 -11 181 -30 46 -68 55 -234 55 l-150 0 0 -225z m305 179 c15 -19
15 -19 8 1 -6 18 -5 19 12 5 10 -8 20 -14 22 -12 1 1 4 -1 5 -5 0 -5 8 -13 17
-20 28 -20 11 -183 -19 -183 -6 0 -8 -5 -4 -11 4 -7 -2 -6 -17 2 -22 11 -23
11 -10 -5 12 -14 12 -16 -4 -10 -12 5 -16 4 -12 -3 4 -7 -21 -9 -75 -7 -105 5
-123 -6 -127 -72 -3 -57 -4 -59 -42 -59 l-29 0 0 197 0 197 28 3 c15 2 73 3
130 2 89 0 104 -3 117 -20z"/>
<path d="M4580 1231 c0 -4 -22 -6 -49 -3 -72 7 -89 -7 -88 -68 1 -27 -2 -50
-6 -50 -10 0 12 -42 27 -53 16 -10 166 -6 166 5 0 5 7 17 16 26 25 25 12 101
-23 129 -30 24 -43 29 -43 14z m48 -93 l3 -57 -33 -6 c-42 -8 -134 -3 -130 8
1 4 2 33 2 65 l0 57 77 -5 78 -5 3 -57z"/>
<path d="M4655 1220 c-3 -6 1 -7 9 -4 18 7 21 14 7 14 -6 0 -13 -4 -16 -10z"/>
<path d="M2585 949 c-4 -6 -5 -12 -2 -15 2 -3 7 2 10 11 7 17 1 20 -8 4z"/>
</g>
</svg>
